# xmcd
#
# Track frame offsets: 
#        150
#        9412
#        21517
#        34062
#        45157
#        58100
#        69365
#        79895
#        90830
#        103642
#        114832
#        128555
#        138925
#        152137
#        163350
#        175260
#        187980
#        201440
#        213967
#        227707
#        240140
#        251247
#        264375
#
# Disc length: 3685 seconds
#
# Revision: 2
# Processed by: cddbd v1.5.2PL0 Copyright (c) Steve Scherf et al.
# Submitted via: ExactAudioCopy v1.0b1
#
DISCID=290e6317
DTITLE=Big John Greer - Rockin' With Big John CD02
DYEAR=1992
DGENRE=Blues
TTITLE0=I'll Never Let You Go (mono)
TTITLE1=Got You On My Mind (mono)
TTITLE2=Have Another Drink And Talk To Me (mono)
TTITLE3=Dyin' Of Love (mono)
TTITLE4=I'm Savin' All My Lovin' (mono)
TTITLE5=Strong Red Whiskey (mono)
TTITLE6=Woman Is A Five Letter Word (mono)
TTITLE7=I'm Just Another One In Love With You (mono)
TTITLE8=Let Me Hold You (mono)
TTITLE9=I'm The Fat Man (mono)
TTITLE10=Since You Went Away From Me (mono)
TTITLE11=When The Roses Bloom In Lover's Lane (mono)
TTITLE12=You'll Never Be Mine (mono)
TTITLE13=I Need You (mono)
TTITLE14=Lonesome And Blue (mono)
TTITLE15=If You Let Me (mono)
TTITLE16=Tell Me So (mono)
TTITLE17=Forgive Me (mono)
TTITLE18=I Guess It's All Over Now (mono)
TTITLE19=You, Only You (mono)
TTITLE20=Slow And Easy (mono)
TTITLE21=Beginning To Miss You (mono)
TTITLE22=You Played On My Piano (mono)
EXTD=
EXTT0=
EXTT1=
EXTT2=
EXTT3=
EXTT4=
EXTT5=
EXTT6=
EXTT7=
EXTT8=
EXTT9=
EXTT10=
EXTT11=
EXTT12=
EXTT13=
EXTT14=
EXTT15=
EXTT16=
EXTT17=
EXTT18=
EXTT19=
EXTT20=
EXTT21=
EXTT22=
PLAYORDER=
